<svg xmlns="http://www.w3.org/2000/svg" fill="none" viewBox="0 0 418 141">
  <g fill="#222" filter="url(#filter0_d)">
    <path d="M236.392 81.8942c0 .6044-.199 1.1169-.599 1.5373-.372.4205-.905.6307-1.597.6307s-1.238-.2102-1.637-.6307c-.373-.4204-.559-.9329-.559-1.5373 0-.6044.186-1.1169.559-1.5373.399-.4205.945-.6308 1.637-.6308.692 0 1.225.2103 1.597.6308.4.4204.599.9329.599 1.5373z"/>
    <path fill-rule="evenodd" d="M256.002 81.2241c-.16.1314-.4.289-.719.473-.319.1577-.719.3285-1.198.5124-.452.184-.985.3417-1.597.4731-.586.1051-1.251.1577-1.997.1577-1.197 0-2.355-.184-3.474-.5519-1.118-.3679-2.102-.9461-2.954-1.7345-.826-.7883-1.491-1.8001-1.997-3.0352-.506-1.2614-.759-2.7856-.759-4.5726 0-1.4454.227-2.7857.679-4.0208.453-1.2351 1.092-2.2994 1.917-3.1929.852-.9198 1.877-1.6294 3.075-2.1287 1.224-.5256 2.595-.7883 4.112-.7883 1.917 0 3.448.1314 4.592.3941 1.172.2366 2.13.4731 2.875.7096v18.6058c0 3.0484-.798 5.2165-2.395 6.5042C254.564 90.343 252.155 91 248.934 91c-1.331 0-2.542-.1051-3.634-.3154-1.064-.1839-1.983-.4073-2.755-.6701l.519-2.3257c.639.2891 1.504.5387 2.596.749 1.118.2102 2.236.3153 3.354.3153 2.449 0 4.219-.473 5.311-1.4191 1.118-.9197 1.677-2.5097 1.677-4.7697v-1.3402zm-.04-15.5312c-.453-.1314-1.038-.2496-1.757-.3547-.719-.1314-1.744-.1971-3.075-.1971-1.118 0-2.116.1971-2.994.5913-.852.3679-1.584.9066-2.197 1.6161-.612.6833-1.078 1.5111-1.397 2.4835-.32.946-.479 1.9972-.479 3.1535 0 1.3402.186 2.4965.559 3.4689.372.946.852 1.7213 1.437 2.3257.612.6044 1.305 1.0512 2.077 1.3402.772.2628 1.557.3942 2.355.3942 1.172 0 2.237-.1708 3.195-.5124.985-.3417 1.743-.7358 2.276-1.1826V65.6929z" clip-rule="evenodd"/>
    <path d="M265.435 83.5892V53.473L268.03 53v10.8008c.852-.3153 1.717-.5518 2.596-.7095.878-.184 1.757-.2759 2.635-.2759 1.598 0 2.929.2233 3.993.6701 1.065.4467 1.917 1.0906 2.556 1.9315.639.8147 1.078 1.8002 1.318 2.9564.266 1.1563.399 2.4309.399 3.8237v11.3921h-2.596V73.0249c0-1.4454-.106-2.6674-.319-3.666-.186-.9986-.519-1.8133-.998-2.444-.453-.6307-1.065-1.0774-1.837-1.3402-.772-.2891-1.744-.4336-2.915-.4336-.453 0-.945.0394-1.477.1182-.506.0789-.985.1709-1.438.276-.452.0788-.865.1708-1.238.2759-.346.1051-.572.184-.679.2365v17.5415h-2.595zM290.764 83.5892h-2.595V63.2095h2.595v20.3797zM291.363 57.0602c0 .6044-.186 1.0906-.559 1.4585-.373.3416-.825.5124-1.358.5124-.532 0-.985-.1708-1.357-.5124-.373-.3679-.559-.8541-.559-1.4585 0-.6045.186-1.0775.559-1.4191.372-.3679.825-.5519 1.357-.5519.533 0 .985.184 1.358.5519.373.3416.559.8146.559 1.4191zM297.644 63.9191c.772-.2102 1.81-.4468 3.115-.7096 1.304-.2627 2.901-.3941 4.791-.3941 1.571 0 2.875.2233 3.914.6701 1.064.4467 1.903 1.0906 2.515 1.9315.639.8147 1.092 1.8002 1.358 2.9564.266 1.1563.399 2.4309.399 3.8237v11.3921h-2.595V73.0249c0-1.4454-.107-2.6674-.32-3.666-.186-.9986-.519-1.8133-.998-2.444-.453-.6307-1.065-1.0774-1.837-1.3402-.745-.2891-1.69-.4336-2.835-.4336-1.224 0-2.289.0657-3.194.1971-.879.1314-1.451.2496-1.717.3547v17.8963h-2.596V63.9191zM327.965 53c1.118 0 2.023.092 2.715.2759.719.1577 1.185.3022 1.398.4336l-.52 2.2075c-.292-.1314-.732-.2628-1.317-.3942-.559-.1577-1.278-.2365-2.156-.2365-1.837 0-3.155.4599-3.954 1.3797-.772.9198-1.158 2.3914-1.158 4.4149v2.1286h8.306v2.1681h-8.306v18.2116h-2.595V61.0021c0-2.6542.612-4.6515 1.837-5.9917 1.251-1.3403 3.168-2.0104 5.75-2.0104z"/>
    <path fill-rule="evenodd" d="M353 73.4191c0 1.603-.24 3.0615-.719 4.3755-.452 1.314-1.104 2.4309-1.956 3.3506-.826.9198-1.81 1.6425-2.955 2.1681-1.145.4993-2.409.7489-3.793.7489-1.385 0-2.649-.2496-3.794-.7489-1.145-.5256-2.143-1.2483-2.995-2.1681-.825-.9197-1.477-2.0366-1.956-3.3506-.453-1.314-.679-2.7725-.679-4.3755 0-1.6031.226-3.0616.679-4.3755.479-1.314 1.131-2.4309 1.956-3.3507.852-.946 1.85-1.6687 2.995-2.168 1.145-.5256 2.409-.7884 3.794-.7884 1.384 0 2.648.2628 3.793.7884 1.145.4993 2.129 1.222 2.955 2.168.852.9198 1.504 2.0367 1.956 3.3507.479 1.3139.719 2.7724.719 4.3755zm-2.755 0c0-2.5491-.599-4.5726-1.797-6.0706-1.198-1.5242-2.822-2.2863-4.871-2.2863-2.05 0-3.674.7621-4.872 2.2863-1.198 1.498-1.797 3.5215-1.797 6.0706 0 2.5491.599 4.5726 1.797 6.0705 1.198 1.498 2.822 2.2469 4.872 2.2469 2.049 0 3.673-.7489 4.871-2.2469 1.198-1.4979 1.797-3.5214 1.797-6.0705z" clip-rule="evenodd"/>
  </g>
  <g filter="url(#filter1_d)">
    <path fill="#F324B9" d="M135 52l70 35-70 34-70-34 70-35z"/>
  </g>
  <g filter="url(#filter2_d)">
    <path fill="#FE493E" d="M135 36l70 35-70 34-70-34 70-35z"/>
  </g>
  <g filter="url(#filter3_d)">
    <path fill="#FFC107" fill-opacity=".9" d="M135 20l70 35-70 34-70-34 70-35z"/>
  </g>
  <defs>
    <filter id="filter0_d" width="123" height="40" x="231" y="53" color-interpolation-filters="sRGB" filterUnits="userSpaceOnUse">
      <feFlood flood-opacity="0" result="BackgroundImageFix"/>
      <feColorMatrix in="SourceAlpha" values="0 0 0 0 0 0 0 0 0 0 0 0 0 0 0 0 0 0 127 0"/>
      <feOffset dy="1"/>
      <feGaussianBlur stdDeviation=".5"/>
      <feColorMatrix values="0 0 0 0 0 0 0 0 0 0 0 0 0 0 0 0 0 0 0.25 0"/>
      <feBlend in2="BackgroundImageFix" result="effect1_dropShadow"/>
      <feBlend in="SourceGraphic" in2="effect1_dropShadow" result="shape"/>
    </filter>
    <filter id="filter1_d" width="148" height="77" x="64" y="52" color-interpolation-filters="sRGB" filterUnits="userSpaceOnUse">
      <feFlood flood-opacity="0" result="BackgroundImageFix"/>
      <feColorMatrix in="SourceAlpha" values="0 0 0 0 0 0 0 0 0 0 0 0 0 0 0 0 0 0 127 0"/>
      <feOffset dx="3" dy="4"/>
      <feGaussianBlur stdDeviation="2"/>
      <feColorMatrix values="0 0 0 0 0.0666667 0 0 0 0 0.0666667 0 0 0 0 0.0666667 0 0 0 0.32 0"/>
      <feBlend in2="BackgroundImageFix" result="effect1_dropShadow"/>
      <feBlend in="SourceGraphic" in2="effect1_dropShadow" result="shape"/>
    </filter>
    <filter id="filter2_d" width="148" height="77" x="64" y="36" color-interpolation-filters="sRGB" filterUnits="userSpaceOnUse">
      <feFlood flood-opacity="0" result="BackgroundImageFix"/>
      <feColorMatrix in="SourceAlpha" values="0 0 0 0 0 0 0 0 0 0 0 0 0 0 0 0 0 0 127 0"/>
      <feOffset dx="3" dy="4"/>
      <feGaussianBlur stdDeviation="2"/>
      <feColorMatrix values="0 0 0 0 0.0666667 0 0 0 0 0.0666667 0 0 0 0 0.0666667 0 0 0 0.32 0"/>
      <feBlend in2="BackgroundImageFix" result="effect1_dropShadow"/>
      <feBlend in="SourceGraphic" in2="effect1_dropShadow" result="shape"/>
    </filter>
    <filter id="filter3_d" width="148" height="77" x="64" y="20" color-interpolation-filters="sRGB" filterUnits="userSpaceOnUse">
      <feFlood flood-opacity="0" result="BackgroundImageFix"/>
      <feColorMatrix in="SourceAlpha" values="0 0 0 0 0 0 0 0 0 0 0 0 0 0 0 0 0 0 127 0"/>
      <feOffset dx="3" dy="4"/>
      <feGaussianBlur stdDeviation="2"/>
      <feColorMatrix values="0 0 0 0 0.0666667 0 0 0 0 0.0666667 0 0 0 0 0.0666667 0 0 0 0.32 0"/>
      <feBlend in2="BackgroundImageFix" result="effect1_dropShadow"/>
      <feBlend in="SourceGraphic" in2="effect1_dropShadow" result="shape"/>
    </filter>
  </defs>
</svg>
