<svg xmlns="http://www.w3.org/2000/svg" fill="none" viewBox="0 0 376 141">
  <path fill="#222" d="M193.96 79.388c0 .552-.18 1.02-.54 1.404-.336.384-.816.576-1.44.576s-1.116-.192-1.476-.576c-.336-.384-.504-.852-.504-1.404 0-.552.168-1.02.504-1.404.36-.384.852-.576 1.476-.576s1.104.192 1.44.576c.36.384.54.852.54 1.404zM199.507 62.972c.696-.192 1.596-.408 2.7-.648 1.128-.24 2.58-.36 4.356-.36 2.352 0 4.056.684 5.112 2.052.12-.096.348-.252.684-.468.36-.24.804-.48 1.332-.72s1.14-.444 1.836-.612c.72-.168 1.512-.252 2.376-.252 1.416 0 2.556.216 3.42.648.888.408 1.572.996 2.052 1.764.48.744.804 1.644.972 2.7.168 1.056.252 2.208.252 3.456v10.404h-2.34v-9.648c0-1.224-.06-2.28-.18-3.168-.096-.912-.312-1.656-.648-2.232-.312-.6-.768-1.044-1.368-1.332-.6-.312-1.38-.468-2.34-.468-.72 0-1.38.072-1.98.216-.576.12-1.08.276-1.512.468-.432.192-.792.384-1.08.576-.264.192-.456.336-.576.432.216.624.372 1.332.468 2.124.12.768.18 1.584.18 2.448v10.584h-2.34v-9.648c0-1.224-.06-2.28-.18-3.168-.096-.912-.312-1.656-.648-2.232-.336-.6-.816-1.044-1.44-1.332-.6-.312-1.404-.468-2.412-.468-1.128 0-2.088.06-2.88.18-.768.12-1.26.228-1.476.324v16.344h-2.34V62.972z"/>
  <path fill="#222" fill-rule="evenodd" d="M229.47 71.612c0-1.632.228-3.048.684-4.248.48-1.224 1.092-2.244 1.836-3.06.768-.816 1.631-1.416 2.592-1.8.983-.408 1.992-.612 3.023-.612 2.28 0 4.093.744 5.437 2.232 1.367 1.488 2.052 3.78 2.052 6.876 0 .192-.013.384-.037.576 0 .192-.011.372-.036.54h-13.068c.073 2.28.637 4.032 1.693 5.256 1.056 1.224 2.736 1.836 5.04 1.836 1.271 0 2.28-.12 3.024-.36.743-.24 1.284-.444 1.62-.612l.431 2.016c-.336.192-.972.42-1.907.684-.913.264-1.992.396-3.241.396-1.631 0-3.023-.24-4.175-.72-1.153-.48-2.101-1.152-2.844-2.016-.745-.864-1.284-1.884-1.62-3.06-.336-1.2-.504-2.508-.504-3.924zm13.212-1.476c-.049-1.944-.505-3.456-1.368-4.536-.865-1.08-2.089-1.62-3.672-1.62-.84 0-1.596.168-2.268.504-.649.336-1.224.792-1.728 1.368-.481.552-.865 1.2-1.153 1.944-.264.744-.419 1.524-.467 2.34h10.656zM265.104 80.36c-.696.24-1.584.468-2.664.684-1.08.216-2.448.324-4.104.324-1.368 0-2.616-.216-3.744-.648-1.104-.456-2.064-1.104-2.88-1.944-.792-.84-1.416-1.86-1.872-3.06-.432-1.2-.648-2.556-.648-4.068 0-1.416.18-2.712.54-3.888.384-1.2.936-2.232 1.656-3.096.72-.864 1.596-1.536 2.628-2.016 1.056-.48 2.256-.72 3.6-.72 1.224 0 2.28.18 3.168.54.912.336 1.572.66 1.98.972V53.432l2.34-.432v27.36zm-2.34-14.652c-.216-.168-.492-.348-.828-.54-.312-.192-.684-.372-1.116-.54-.432-.168-.9-.3-1.404-.396-.504-.12-1.032-.18-1.584-.18-1.152 0-2.124.204-2.916.612-.768.408-1.392.96-1.872 1.656-.48.672-.828 1.476-1.044 2.412-.216.912-.324 1.884-.324 2.916 0 2.448.612 4.332 1.836 5.652 1.224 1.296 2.844 1.944 4.86 1.944 1.152 0 2.076-.048 2.772-.144.72-.12 1.26-.24 1.62-.36V65.708z" clip-rule="evenodd"/>
  <path fill="#222" d="M273.636 80.936h-2.34V62.324h2.34v18.612zM274.176 56.708c0 .552-.168.996-.504 1.332-.336.312-.744.468-1.224.468s-.888-.156-1.224-.468c-.336-.336-.504-.78-.504-1.332s.168-.984.504-1.296c.336-.336.744-.504 1.224-.504s.888.168 1.224.504c.336.312.504.744.504 1.296z"/>
  <path fill="#222" fill-rule="evenodd" d="M285.491 61.892c1.224 0 2.256.18 3.096.54.864.336 1.56.816 2.088 1.44.528.6.912 1.32 1.152 2.16.24.84.36 1.752.36 2.736v11.736c-.24.072-.588.156-1.044.252l-.64.1015c-.292.0463-.606.0965-.944.1505-.6.096-1.272.168-2.016.216-.72.072-1.464.108-2.232.108-.984 0-1.896-.108-2.736-.324-.816-.216-1.536-.552-2.16-1.008-.6-.48-1.08-1.08-1.44-1.8-.336-.744-.504-1.644-.504-2.7 0-1.008.192-1.872.576-2.592.384-.72.924-1.308 1.62-1.764.696-.48 1.524-.828 2.484-1.044.96-.216 2.004-.324 3.132-.324.336 0 .684.024 1.044.072.384.024.744.072 1.08.144.36.048.66.108.9.18.264.048.444.096.54.144v-1.152c0-.648-.048-1.272-.144-1.872-.096-.624-.312-1.176-.648-1.656-.312-.504-.768-.9-1.368-1.188-.576-.312-1.344-.468-2.304-.468-1.368 0-2.388.096-3.06.288-.672.192-1.164.348-1.476.468l-.324-2.052c.408-.192 1.032-.372 1.872-.54.864-.168 1.896-.252 3.096-.252zm.216 17.352c.912 0 1.704-.024 2.376-.072.696-.072 1.284-.156 1.764-.252v-6.552c-.264-.12-.684-.24-1.26-.36-.576-.144-1.368-.216-2.376-.216-.576 0-1.176.048-1.8.144-.624.072-1.2.252-1.728.54-.528.264-.96.636-1.296 1.116-.336.48-.504 1.116-.504 1.908 0 .696.108 1.284.324 1.764.24.48.564.864.972 1.152.432.288.936.504 1.512.648.6.12 1.272.18 2.016.18z" clip-rule="evenodd"/>
  <path fill="#222" d="M300.496 80.936h-2.34V62.324h2.34v18.612zM301.036 56.708c0 .552-.168.996-.504 1.332-.336.312-.744.468-1.224.468s-.888-.156-1.224-.468c-.336-.336-.504-.78-.504-1.332s.168-.984.504-1.296c.336-.336.744-.504 1.224-.504s.888.168 1.224.504c.336.312.504.744.504 1.296zM306.699 62.972c.696-.192 1.632-.408 2.808-.648 1.176-.24 2.616-.36 4.32-.36 1.416 0 2.592.204 3.528.612.96.408 1.716.996 2.268 1.764.576.744.984 1.644 1.224 2.7.24 1.056.36 2.22.36 3.492v10.404h-2.34v-9.648c0-1.32-.096-2.436-.288-3.348-.168-.912-.468-1.656-.9-2.232-.408-.576-.96-.984-1.656-1.224-.672-.264-1.524-.396-2.556-.396-1.104 0-2.064.06-2.88.18-.792.12-1.308.228-1.548.324v16.344h-2.34V62.972zM334.035 53c1.008 0 1.824.084 2.448.252.648.144 1.068.276 1.26.396l-.468 2.016c-.264-.12-.66-.24-1.188-.36-.504-.144-1.152-.216-1.944-.216-1.656 0-2.844.42-3.564 1.26-.696.84-1.044 2.184-1.044 4.032v1.944h7.488v1.98h-7.488v16.632h-2.34V60.308c0-2.424.552-4.248 1.656-5.472 1.128-1.224 2.856-1.836 5.184-1.836z"/>
  <path fill="#222" fill-rule="evenodd" d="M356.606 71.648c0 1.464-.216 2.796-.648 3.996-.408 1.2-.996 2.22-1.764 3.06-.744.84-1.632 1.5-2.664 1.98-1.032.456-2.172.684-3.42.684-1.248 0-2.388-.228-3.42-.684-1.032-.48-1.932-1.14-2.7-1.98-.744-.84-1.332-1.86-1.764-3.06-.408-1.2-.612-2.532-.612-3.996s.204-2.796.612-3.996c.432-1.2 1.02-2.22 1.764-3.06.768-.864 1.668-1.524 2.7-1.98 1.032-.48 2.172-.72 3.42-.72 1.248 0 2.388.24 3.42.72 1.032.456 1.92 1.116 2.664 1.98.768.84 1.356 1.86 1.764 3.06.432 1.2.648 2.532.648 3.996zm-2.484 0c0-2.328-.54-4.176-1.62-5.544-1.08-1.392-2.544-2.088-4.392-2.088-1.848 0-3.312.696-4.392 2.088-1.08 1.368-1.62 3.216-1.62 5.544 0 2.328.54 4.176 1.62 5.544 1.08 1.368 2.544 2.052 4.392 2.052 1.848 0 3.312-.684 4.392-2.052 1.08-1.368 1.62-3.216 1.62-5.544z" clip-rule="evenodd"/>
  <g filter="url(#filter0_d)">
    <path fill="#F324B9" d="M90 52l70 35-70 34-70-34 70-35z"/>
  </g>
  <g filter="url(#filter1_d)">
    <path fill="#FE493E" d="M90 36l70 35-70 34-70-34 70-35z"/>
  </g>
  <g filter="url(#filter2_d)">
    <path fill="#FFC107" fill-opacity=".9" d="M90 20l70 35-70 34-70-34 70-35z"/>
  </g>
  <defs>
    <filter id="filter0_d" width="148" height="77" x="19" y="52" color-interpolation-filters="sRGB" filterUnits="userSpaceOnUse">
      <feFlood flood-opacity="0" result="BackgroundImageFix"/>
      <feColorMatrix in="SourceAlpha" values="0 0 0 0 0 0 0 0 0 0 0 0 0 0 0 0 0 0 127 0"/>
      <feOffset dx="3" dy="4"/>
      <feGaussianBlur stdDeviation="2"/>
      <feColorMatrix values="0 0 0 0 0.0666667 0 0 0 0 0.0666667 0 0 0 0 0.0666667 0 0 0 0.32 0"/>
      <feBlend in2="BackgroundImageFix" result="effect1_dropShadow"/>
      <feBlend in="SourceGraphic" in2="effect1_dropShadow" result="shape"/>
    </filter>
    <filter id="filter1_d" width="148" height="77" x="19" y="36" color-interpolation-filters="sRGB" filterUnits="userSpaceOnUse">
      <feFlood flood-opacity="0" result="BackgroundImageFix"/>
      <feColorMatrix in="SourceAlpha" values="0 0 0 0 0 0 0 0 0 0 0 0 0 0 0 0 0 0 127 0"/>
      <feOffset dx="3" dy="4"/>
      <feGaussianBlur stdDeviation="2"/>
      <feColorMatrix values="0 0 0 0 0.0666667 0 0 0 0 0.0666667 0 0 0 0 0.0666667 0 0 0 0.32 0"/>
      <feBlend in2="BackgroundImageFix" result="effect1_dropShadow"/>
      <feBlend in="SourceGraphic" in2="effect1_dropShadow" result="shape"/>
    </filter>
    <filter id="filter2_d" width="148" height="77" x="19" y="20" color-interpolation-filters="sRGB" filterUnits="userSpaceOnUse">
      <feFlood flood-opacity="0" result="BackgroundImageFix"/>
      <feColorMatrix in="SourceAlpha" values="0 0 0 0 0 0 0 0 0 0 0 0 0 0 0 0 0 0 127 0"/>
      <feOffset dx="3" dy="4"/>
      <feGaussianBlur stdDeviation="2"/>
      <feColorMatrix values="0 0 0 0 0.0666667 0 0 0 0 0.0666667 0 0 0 0 0.0666667 0 0 0 0.32 0"/>
      <feBlend in2="BackgroundImageFix" result="effect1_dropShadow"/>
      <feBlend in="SourceGraphic" in2="effect1_dropShadow" result="shape"/>
    </filter>
  </defs>
</svg>
